<svg width="77" height="88" viewBox="0 0 77 88" fill="none" xmlns="http://www.w3.org/2000/svg">
<path fill-rule="evenodd" clip-rule="evenodd" d="M69.0537 20.6487H7.33331C9.13173 9.02307 22.2624 0 38.1935 0C54.1246 0 67.2553 9.02307 69.0537 20.6487Z" fill="black"/>
<rect y="20" width="77" height="7" rx="3" fill="black"/>
<path d="M7 27H22V30C22 31.6569 20.6569 33 19 33H10C8.34315 33 7 31.6569 7 30V27Z" fill="black"/>
<path d="M7 81H22V79C22 77.3431 20.6569 76 19 76H10C8.34315 76 7 77.3431 7 79V81Z" fill="black"/>
<rect x="9" y="33" width="11" height="3" rx="1.5" fill="black"/>
<rect width="11" height="2" rx="1" transform="matrix(1 0 0 -1 9 76)" fill="black"/>
<rect x="32" y="33" width="12" height="3" rx="1.5" fill="black"/>
<rect width="12" height="2" rx="1" transform="matrix(1 0 0 -1 32 76)" fill="black"/>
<rect x="56" y="33" width="11" height="3" rx="1.5" fill="black"/>
<rect width="11" height="2" rx="1" transform="matrix(1 0 0 -1 56 76)" fill="black"/>
<rect x="10" y="36" width="9" height="38" fill="black"/>
<rect x="33" y="36" width="10" height="38" fill="black"/>
<rect x="57" y="36" width="9" height="38" fill="black"/>
<path d="M31 27H45V30C45 31.6569 43.6569 33 42 33H34C32.3431 33 31 31.6569 31 30V27Z" fill="black"/>
<path d="M31 81H45V79C45 77.3431 43.6569 76 42 76H34C32.3431 76 31 77.3431 31 79V81Z" fill="black"/>
<path d="M54 27H69V30C69 31.6569 67.6569 33 66 33H57C55.3431 33 54 31.6569 54 30V27Z" fill="black"/>
<path d="M54 81H69V79C69 77.3431 67.6569 76 66 76H57C55.3431 76 54 77.3431 54 79V81Z" fill="black"/>
<path d="M0 84C0 82.3431 1.34315 81 3 81H74C75.6569 81 77 82.3431 77 84V88H0V84Z" fill="black"/>
</svg>
